HIERARCHY
ROOT trot
{
	OFFSET 0.000000 0.000000 0.000000 
	CHANNELS 6 Xposition Yposition Zposition Xrotation Yrotation Zrotation
	JOINT Spine_01
	{
		OFFSET -0.000000 133.018967 -44.918495 
		CHANNELS 3 Xrotation Yrotation Zrotation
		JOINT Spine_02
		{
			OFFSET -1.963336 -5.417946 27.916510 
			CHANNELS 3 Xrotation Yrotation Zrotation
			JOINT Spine_03
			{
				OFFSET -0.348883 -2.764824 35.765018 
				CHANNELS 3 Xrotation Yrotation Zrotation
				JOINT Spine_04
				{
					OFFSET 2.312364 2.880417 39.095474 
					CHANNELS 3 Xrotation Yrotation Zrotation
					JOINT Neck_Base
					{
						OFFSET 2.675411 3.734146 29.297302 
						CHANNELS 3 Xrotation Yrotation Zrotation
						JOINT Neck_01
						{
							OFFSET -0.250758 18.287338 8.658661 
							CHANNELS 3 Xrotation Yrotation Zrotation
							JOINT Neck_02
							{
								OFFSET -0.246469 15.901901 14.686096 
								CHANNELS 3 Xrotation Yrotation Zrotation
								JOINT Head
								{
									OFFSET -0.610976 15.699570 15.351357 
									CHANNELS 3 Xrotation Yrotation Zrotation
									JOINT L_Ear
									{
										OFFSET 7.497761 16.400482 9.877068 
										CHANNELS 3 Xrotation Yrotation Zrotation
										End Site
										{
											OFFSET 5.249084 7.608658 -14.122223 
										}
									}
									JOINT R_Ear
									{
										OFFSET -8.345821 15.985779 9.876915 
										CHANNELS 3 Xrotation Yrotation Zrotation
										End Site
										{
											OFFSET 5.253622 -6.469818 14.677277 
										}
									}
									JOINT Jaw
									{
										OFFSET 0.120467 -4.600449 8.326424 
										CHANNELS 3 Xrotation Yrotation Zrotation
										End Site
										{
											OFFSET -0.440576 16.825027 -1.267303 
										}
									}
								}
							}
						}
					}
					JOINT R_Scapula
					{
						OFFSET -6.886612 17.204956 8.295563 
						CHANNELS 3 Xrotation Yrotation Zrotation
						JOINT R_Shoulder
						{
							OFFSET 0.944667 -30.411758 28.920792 
							CHANNELS 3 Xrotation Yrotation Zrotation
							JOINT R_Front_UpperLeg
							{
								OFFSET -3.053791 -31.671829 -9.811905 
								CHANNELS 3 Xrotation Yrotation Zrotation
								JOINT R_Front_LowerLeg
								{
									OFFSET 0.760651 -30.764484 25.322250 
									CHANNELS 3 Xrotation Yrotation Zrotation
									JOINT R_Front_Ankle
									{
										OFFSET 0.574218 -28.266016 11.811890 
										CHANNELS 3 Xrotation Yrotation Zrotation
										JOINT R_Front_Hoof
										{
											OFFSET 0.000001 -9.870561 1.909836 
											CHANNELS 3 Xrotation Yrotation Zrotation
											End Site
											{
												OFFSET -0.000001 2.287526 -9.789925 
											}
										}
									}
								}
							}
						}
					}
					JOINT L_Scapula
					{
						OFFSET 6.543331 17.908585 6.979477 
						CHANNELS 3 Xrotation Yrotation Zrotation
						JOINT L_Shoulder
						{
							OFFSET 7.508667 -37.600906 17.086464 
							CHANNELS 3 Xrotation Yrotation Zrotation
							JOINT L_Front_UpperLeg
							{
								OFFSET 0.875155 -21.187859 -25.671043 
								CHANNELS 3 Xrotation Yrotation Zrotation
								JOINT L_Front_LowerLeg
								{
									OFFSET -4.643334 -38.550724 -8.972542 
									CHANNELS 3 Xrotation Yrotation Zrotation
									JOINT L_Front_Ankle
									{
										OFFSET -2.672742 -25.726305 -16.426241 
										CHANNELS 3 Xrotation Yrotation Zrotation
										JOINT L_Front_Hoof
										{
											OFFSET 0.004585 -8.649823 -5.123941 
											CHANNELS 3 Xrotation Yrotation Zrotation
											End Site
											{
												OFFSET 0.011460 -8.209476 5.803320 
											}
										}
									}
								}
							}
						}
					}
				}
			}
		}
		JOINT L_Hip
		{
			OFFSET 15.362549 -6.915215 -12.029934 
			CHANNELS 3 Xrotation Yrotation Zrotation
			JOINT L_Back_UpperLeg
			{
				OFFSET -1.672355 -31.577599 16.126976 
				CHANNELS 3 Xrotation Yrotation Zrotation
				JOINT L_Back_LowerLeg
				{
					OFFSET -3.855629 -44.689884 2.323212 
					CHANNELS 3 Xrotation Yrotation Zrotation
					JOINT L_Back_Ankle
					{
						OFFSET 2.466084 -26.714212 24.284054 
						CHANNELS 3 Xrotation Yrotation Zrotation
						JOINT L_Back_Hoof
						{
							OFFSET 0.635726 -11.227886 3.136133 
							CHANNELS 3 Xrotation Yrotation Zrotation
							End Site
							{
								OFFSET 1.066628 -1.294503 11.553846 
							}
						}
					}
				}
			}
		}
		JOINT R_Hip
		{
			OFFSET -14.361279 -6.136742 -13.588184 
			CHANNELS 3 Xrotation Yrotation Zrotation
			JOINT R_Back_UpperLeg
			{
				OFFSET -0.228327 -33.304344 -12.279972 
				CHANNELS 3 Xrotation Yrotation Zrotation
				JOINT R_Back_LowerLeg
				{
					OFFSET 1.874175 -31.017994 -32.431694 
					CHANNELS 3 Xrotation Yrotation Zrotation
					JOINT R_Back_Ankle
					{
						OFFSET -0.838160 -35.475014 -7.090286 
						CHANNELS 3 Xrotation Yrotation Zrotation
						JOINT R_Back_Hoof
						{
							OFFSET 0.183949 -11.579794 -1.475945 
							CHANNELS 3 Xrotation Yrotation Zrotation
							End Site
							{
								OFFSET 0.602100 10.611435 -4.831032 
							}
						}
					}
				}
			}
		}
		JOINT Tail_01
		{
			OFFSET 1.498355 11.668015 -22.752594 
			CHANNELS 3 Xrotation Yrotation Zrotation
			JOINT Tail_02
			{
				OFFSET 0.984761 -18.128342 -12.585327 
				CHANNELS 3 Xrotation Yrotation Zrotation
				JOINT Tail_03
				{
					OFFSET 1.631411 -22.351173 -6.556175 
					CHANNELS 3 Xrotation Yrotation Zrotation
					JOINT Tail_04
					{
						OFFSET 2.014043 -22.313156 -6.122116 
						CHANNELS 3 Xrotation Yrotation Zrotation
						JOINT Tail_05
						{
							OFFSET 2.460956 -21.660637 -8.412987 
							CHANNELS 3 Xrotation Yrotation Zrotation
							End Site
							{
								OFFSET 2.069515 8.630600 -21.615913 
							}
						}
					}
				}
			}
		}
	}
}
MOTION
Frames: 4
Frame Time: 0.033333
0.000000 0.000000 0.000000 0.000006 0.000000 -0.000000 -0.157630 5.997905 3.008273 -0.591382 -5.048122 -2.461389 -0.289807 -6.820253 -6.364057 0.484702 -2.053505 -0.290541 0.044272 -0.127150 0.946766 -0.144140 2.492236 0.299633 -0.236903 4.745396 2.362218 0.116872 0.881937 -0.590991 0.000005 -0.000049 -0.000040 -1.431734 -0.765500 0.166811 -0.000034 -0.000035 -0.000013 18.833158 -1.578808 -0.730030 12.454689 -0.941417 -1.162565 24.551016 19.416656 -1.680973 -3.642036 -0.058647 0.037786 -10.944976 -6.305582 -3.010720 -0.000003 0.000026 0.000004 -19.373440 -2.818983 0.807156 -12.665151 -2.101153 0.977486 -22.993814 7.551076 17.276535 2.991275 -0.385251 0.132128 10.233859 -3.798843 -5.750409 0.000011 0.002266 -0.001602 47.260803 -0.136710 2.687560 1.314655 -12.270988 2.702722 5.419757 -0.579477 -1.103900 -31.324177 8.163061 -3.244469 35.715057 0.108280 -3.310250 -47.226551 2.066293 -1.724380 -1.035033 -9.466872 -6.745116 -8.175041 0.412329 -0.784645 33.054253 8.756737 -2.545658 -35.553955 1.332971 -4.155891 0.997925 4.303470 -1.981976 1.023880 2.801810 -5.869202 -0.974939 0.694047 -2.644679 -0.011528 0.462223 -1.403857 -0.000005 0.000054 0.000029 
0.000000 0.000000 0.000000 0.000006 0.000000 -0.000000 -0.409526 5.873793 2.893221 -0.244948 -4.594478 -2.227439 -0.073552 -6.731829 -6.162822 0.480163 -2.349495 -0.293976 -0.606633 -0.447391 1.059815 -0.648902 2.394770 0.325375 -0.538323 4.705030 2.295686 0.663971 1.099290 -0.688941 2.398102 -1.112910 0.310522 0.777671 0.413430 -0.098500 -0.000033 -0.000035 -0.000013 15.852458 -1.346178 -0.557490 16.189203 -1.270837 -1.468799 16.427637 19.747215 0.112106 9.932142 0.146459 -0.121091 9.077339 -6.659399 1.433483 7.048840 0.000042 0.000004 -18.970209 -2.717359 0.753160 -18.122543 -3.064064 1.251789 -10.782211 9.776658 15.621911 -6.861685 0.906493 -0.226021 3.531199 -3.281403 -5.804356 0.000005 0.003123 -0.002210 46.613106 -0.149936 2.651988 3.778964 -12.209081 3.769691 8.369599 -0.938533 -1.681220 -26.735460 7.755728 -3.989082 37.079880 0.071379 -3.433508 -45.220844 1.953970 -1.689515 -5.539475 -11.626362 -8.354442 0.850900 -0.036374 0.084829 24.874557 9.945328 -3.457288 -38.639832 1.565503 -4.463487 2.189539 0.927688 -0.311667 -0.550634 3.472652 -7.265641 -2.083747 1.053994 -4.043638 -0.598606 0.948573 -3.010064 -0.000003 0.000053 0.000031 
0.000000 0.000000 0.000000 0.000006 0.000000 -0.000000 -1.060299 5.536901 2.585763 0.304050 -4.034564 -1.765317 0.545322 -6.386442 -5.556383 0.664383 -2.525445 -0.292648 -1.432922 -0.537643 1.064810 -1.434346 2.208529 0.295416 -1.008798 4.398184 2.087925 1.613437 1.156371 -0.764028 4.371973 -2.016027 0.600200 3.251480 1.716266 -0.448246 -0.000032 -0.000035 -0.000013 13.713861 -1.175614 -0.474486 17.639259 -1.404042 -1.581850 8.190436 17.297422 3.185762 28.517006 0.355601 -0.407285 -1.883937 -3.984608 1.420500 8.761141 0.000097 0.000016 -18.719755 -2.666756 0.732331 -20.917093 -3.566056 1.356464 1.518853 11.638571 12.394051 -19.236832 2.584193 -0.354657 1.957940 -3.534391 -5.179842 -0.000002 0.003204 -0.002161 44.589680 -0.188648 2.539937 8.576984 -12.767195 4.464337 -0.288634 0.027880 0.060211 -15.435119 7.753652 -3.624015 37.986206 0.045249 -3.514865 -42.632263 1.810924 -1.638744 1.996302 -12.737833 -5.540069 -8.103889 0.408266 -0.778077 18.189308 9.452693 -2.668378 -34.161530 1.233560 -4.013124 6.599111 -2.017179 1.508882 -5.633845 4.138460 -8.372855 -5.119653 1.387408 -5.454949 -2.294694 1.408991 -4.675135 -0.000003 0.000053 0.000029 
0.000000 0.000000 0.000000 0.000006 0.000000 -0.000000 -1.953750 5.042172 2.140064 0.910758 -3.403663 -1.185415 1.413159 -5.832588 -4.669797 1.002589 -2.580438 -0.286096 -2.152233 -0.429226 0.974415 -2.216146 1.956211 0.203458 -1.515520 3.884401 1.759480 2.607126 1.100090 -0.811335 5.711351 -2.621434 0.813987 5.600223 2.933315 -0.830799 -0.000031 -0.000035 -0.000013 12.102418 -1.033697 -0.478856 17.602425 -1.400625 -1.579021 -1.906442 12.995137 6.206159 45.930183 0.459157 -0.723019 -8.685780 -0.184242 1.097801 9.806112 -0.000290 -0.000075 -23.934420 -3.591678 0.973549 -5.578212 -0.897961 0.487356 -2.834466 10.626710 10.313211 -19.236839 2.584194 -0.354657 -11.854645 -2.554394 -4.973536 7.241266 0.002723 -0.002618 41.069786 -0.246479 2.342017 17.676319 -13.437911 5.373450 -15.556174 1.052650 3.397898 -4.439766 7.596647 -2.105030 38.524635 0.029118 -3.563000 -39.476337 1.639847 -1.568185 13.741718 -12.367774 -1.155061 -20.637733 1.244815 -1.848684 6.357788 8.316155 -1.931196 -23.474489 0.591346 -2.845701 12.747232 -4.153009 3.367239 -12.904937 4.634350 -8.847241 -9.334642 1.667779 -6.561951 -4.681195 1.784270 -6.045377 -0.000003 0.000054 0.000027 
